<?xml version="1.0" encoding="utf-8"?>
<!-- Generator: Adobe Illustrator 16.0.3, SVG Export Plug-In . SVG Version: 6.00 Build 0)  -->
<!DOCTYPE svg PUBLIC "-//W3C//DTD SVG 1.1//EN" "http://www.w3.org/Graphics/SVG/1.1/DTD/svg11.dtd">
<svg version="1.1" id="Layer_1" xmlns="http://www.w3.org/2000/svg" xmlns:xlink="http://www.w3.org/1999/xlink" x="0px" y="0px"
	 width="93.606px" height="55.563px" viewBox="-17.431 -10.347 93.606 55.563"
	 enable-background="new -17.431 -10.347 93.606 55.563" xml:space="preserve">
<g>
	<rect x="-16.128" y="-9.044" fill="#FFFFFF" stroke="#000000" stroke-width="2.6052" width="91" height="52.958"/>
	<polygon points="6.365,21.013 8.769,21.013 8.769,26.352 10.686,26.352 10.686,21.013 13.089,21.013 13.089,35.297 10.686,35.297 
		10.686,29.191 8.769,29.191 8.769,35.297 6.365,35.297 	"/>
	<path d="M18.799,29.976h-1.748l0.844-6.364h0.029L18.799,29.976z M13.86,35.295h2.491l0.358-2.721h2.446l0.373,2.721h2.489
		l-2.546-14.284h-3.004L13.86,35.295z"/>
	<polygon points="22.375,32.816 25.837,23.733 22.647,23.733 22.647,21.011 28.601,21.011 28.601,23.374 25.094,32.575 
		28.601,32.575 28.601,35.295 22.375,35.295 	"/>
	<path d="M33.895,29.976h-1.749l0.843-6.364h0.031L33.895,29.976z M28.956,35.295h2.49l0.36-2.721h2.445l0.371,2.721h2.488
		l-2.544-14.284h-3.006L28.956,35.295z"/>
	<path d="M40.291,23.374h0.728c0.959,0,1.242,0.719,1.242,1.802c0,0.837-0.255,1.857-1.228,1.857h-0.742V23.374z M37.884,35.295
		h2.406v-5.901h0.915c0.759,0,1.002,0.521,1.002,3.001c0,1.622,0.073,2.422,0.258,2.899h2.59v-0.179
		c-0.346-0.199-0.417-0.479-0.456-3.303c-0.033-1.92-0.118-3.261-1.648-3.559v-0.039c1.116-0.383,1.715-1.401,1.715-3.482
		c0-1.96-0.7-3.725-2.744-3.725h-4.037V35.295z"/>
	<path d="M48.5,23.492h0.673c1.275,0,1.477,0.942,1.477,4.422c0,4.279-0.388,4.898-1.502,4.898h-0.644v-9.32H48.5z M46.1,35.295
		h3.318c3.16,0,3.632-2.424,3.632-7.603c0-4.958-1.015-6.68-3.39-6.68H46.1V35.295z"/>
	<rect x="-6.451" y="0.925" width="2.512" height="14.592"/>
	<polygon points="-2.336,0.925 0.547,0.925 2.614,10.405 2.641,10.405 2.641,0.925 4.977,0.925 4.977,15.515 2.134,15.515 
		-0.065,5.46 -0.095,5.46 -0.095,15.515 -2.336,15.515 	"/>
	<polygon points="6.531,0.925 9.045,0.925 9.045,6.38 11.048,6.38 11.048,0.925 13.561,0.925 13.561,15.515 11.048,15.515 
		11.048,9.285 9.045,9.285 9.045,15.515 6.531,15.515 	"/>
	<path d="M19.531,10.077h-1.826l0.883-6.497h0.03L19.531,10.077z M14.37,15.517h2.603l0.374-2.781h2.558l0.388,2.781h2.603
		L20.234,0.925h-3.142L14.37,15.517z"/>
	<polygon points="23.703,0.925 26.217,0.925 26.217,12.738 29.852,12.738 29.852,15.515 23.703,15.515 	"/>
	<path d="M35.04,10.077h-1.826l0.884-6.497h0.029L35.04,10.077z M29.878,15.517h2.604l0.373-2.781h2.559l0.386,2.781h2.602
		l-2.66-14.592H32.6L29.878,15.517z"/>
	<polygon points="39.948,3.705 37.701,3.705 37.701,0.925 44.704,0.925 44.704,3.705 42.459,3.705 42.459,15.517 39.948,15.517 	"/>
	<rect x="45.615" y="0.925" width="2.514" height="14.592"/>
	<path d="M52.094,8.219c0-4.004,0.148-5.292,1.138-5.292c1.015,0,1.165,1.29,1.165,5.292c0,4.006-0.152,5.294-1.165,5.294
		C52.243,13.514,52.094,12.225,52.094,8.219 M57,8.219c0-4.047-0.193-7.581-3.75-7.581c-3.312,0-3.76,2.942-3.76,7.581
		c0,4.642,0.448,7.585,3.76,7.585C56.806,15.804,57,12.265,57,8.219"/>
	<polygon points="58.316,0.925 61.206,0.925 63.268,10.405 63.295,10.405 63.295,0.925 65.629,0.925 65.629,15.515 62.785,15.515 
		60.587,5.46 60.558,5.46 60.558,15.515 58.316,15.515 	"/>
</g>
</svg>
