<?xml version="1.0" encoding="utf-8"?>
<!-- Generator: Adobe Illustrator 16.0.0, SVG Export Plug-In . SVG Version: 6.00 Build 0)  -->
<!DOCTYPE svg PUBLIC "-//W3C//DTD SVG 1.1//EN" "http://www.w3.org/Graphics/SVG/1.1/DTD/svg11.dtd">
<svg version="1.1" id="Layer_1" xmlns="http://www.w3.org/2000/svg" xmlns:xlink="http://www.w3.org/1999/xlink" x="0px" y="0px"
	 width="988.031px" height="751.972px" viewBox="0 0 988.031 751.972" enable-background="new 0 0 988.031 751.972"
	 xml:space="preserve">
<g>
	<path d="M76.673,313.551c-7.897,2.591-18.347,4.019-29.425,4.019s-21.528-1.427-29.425-4.019c-5.677-1.863-9.087-4-11.074-6.09
		v341.884c0,7.34,18.132,13.29,40.499,13.29c22.366,0,40.498-5.95,40.498-13.29V307.46C85.76,309.551,82.35,311.688,76.673,313.551z
		"/>
	<g>
		<path d="M47.249,285.461c-22.367,0-40.499,5.95-40.499,13.291c0,7.34,18.132,13.29,40.499,13.29
			c22.366,0,40.498-5.95,40.498-13.29C87.747,291.411,69.615,285.461,47.249,285.461z M63.17,300.406
			c0,1.764-7.229,3.194-16.148,3.194s-16.148-1.43-16.148-3.194v-11.65c0-1.764,7.229-3.194,16.148-3.194s16.148,1.43,16.148,3.194
			V300.406z"/>
	</g>
	<ellipse cx="46.893" cy="291.151" rx="13.147" ry="4.209"/>
</g>
<g>
	<path d="M228.168,320.012c-12.09,3.966-28.087,6.153-45.048,6.153c-16.959,0-32.958-2.187-45.047-6.153
		c-8.691-2.852-13.911-6.125-16.953-9.323v389.168c0,11.236,27.758,20.348,62,20.348s62-9.111,62-20.348V310.688
		C242.078,313.887,236.859,317.16,228.168,320.012z"/>
	<g>
		<path d="M183.12,278.6c-34.242,0-62,9.11-62,20.348c0,11.236,27.758,20.345,62,20.345s62-9.108,62-20.345
			C245.12,287.71,217.362,278.6,183.12,278.6z M207.496,283.646v17.834c0,2.701-11.068,4.891-24.721,4.891
			s-24.721-2.19-24.721-4.891v-17.834v-0.001c0-2.7,11.068-4.89,24.721-4.89S207.496,280.945,207.496,283.646L207.496,283.646z"/>
	</g>
	<ellipse cx="182.576" cy="287.312" rx="20.128" ry="6.445"/>
</g>
<g>
	<g>
		<path d="M203.622,0C123.995,0,59.445,21.183,59.445,47.314s64.55,47.314,144.177,47.314c79.626,0,144.177-21.183,144.177-47.314
			S283.248,0,203.622,0z M260.306,11.731v41.474c0,6.281-25.738,11.373-57.488,11.373s-57.488-5.091-57.488-11.373V11.731v0
			c0-6.28,25.738-11.372,57.488-11.372S260.306,5.451,260.306,11.731L260.306,11.731z"/>
	</g>
	<ellipse cx="202.357" cy="20.258" rx="46.805" ry="14.987"/>
	<g>
		<path d="M279.87,339.248l0.173-0.068l67.756-26.786V67.64c-7.073,7.441-19.212,15.049-39.422,21.681
			c-28.113,9.226-65.315,14.307-104.754,14.307S126.98,98.547,98.867,89.321c-20.21-6.632-32.349-14.24-39.422-21.681v211.693
			c16.457,1.648,35.052,6.9,35.052,19.418c0,0.012,0,0.023,0,0.036c0,0.014,0,0.027,0,0.041v334.089
			c6.623,2.515,14.042,4.796,22.124,6.806V296.427c2.95-14.834,35.021-22.327,66.5-22.327s63.55,7.492,66.5,22.327v350.421
			c10.702-1.182,20.837-2.766,30.25-4.694V339.628V339.248z"/>
	</g>
</g>
<g>
	<polyline points="284.37,347.724 361.87,402.224 361.87,747.474 284.37,700.225 	"/>
	<polygon points="367.12,401.558 367.12,744.225 527.787,680.225 527.787,332.892 	"/>
	<ellipse cx="367.214" cy="341.546" rx="24.433" ry="8.144"/>
	<g>
		<path d="M439.787,280.867l-151,59.695l76.333,55.667l155.667-66.333L439.787,280.867z M396.147,359.546
			c0,8.734-14.532,12.644-28.933,12.644s-28.933-3.909-28.933-12.644v-18c0-8.735,14.532-12.645,28.933-12.645
			s28.933,3.91,28.933,12.645V359.546z M445.708,340.871c-13.935,0-28.933-4.218-28.933-13.478v-14
			c0-9.26,14.998-13.478,28.933-13.478s28.934,4.218,28.934,13.478v14C474.641,336.653,459.643,340.871,445.708,340.871z"/>
	</g>
	<ellipse cx="445.708" cy="313.393" rx="24.433" ry="8.978"/>
</g>
<g>
	<g>
		<path d="M906.202,601.441c-6.674-7.678-12.577-18.426-17.548-31.945c-9.8-26.656-15.197-61.912-15.197-99.271
			s5.397-72.615,15.197-99.271c4.971-13.52,10.874-24.268,17.548-31.945c1.585-1.824,3.167-3.394,4.736-4.783H726.383l11.382,27.464
			l28.585-20.115l16.145,75.167l24.086-12.175v78.874l-18.263-55.583l-25.409,17.469l-8.999-69.345l-40.495,39.172l22.497,10.058
			l-53.729,54.523l24.614-47.112l-19.851-17.469l31.762-35.731l-12.705-45.197H537.791v272h373.147
			C909.369,604.834,907.787,603.265,906.202,601.441z"/>
	</g>
	<g>
		<path d="M968.09,522.402v0.06h-33.904c-11.511,0-20.842-24.262-20.842-54.19c0-29.928,9.331-54.189,20.842-54.189h34.173v0.09
			c4.194,0.603,8.056,4.438,11.228,10.551c-6.882-52.731-25.382-90.498-47.129-90.498c-27.614,0-50,60.89-50,136s22.386,136,50,136
			c22.453,0,41.449-40.258,47.766-95.684C976.871,517.533,972.674,521.895,968.09,522.402z"/>
	</g>
	<ellipse cx="967.388" cy="468.273" rx="15.049" ry="46.524"/>
	<path d="M728.545,181.831l3.466,3.462c16.109-12.646,19.413-33.792,17.336-55.449c8.657,2.254,9.868,13.695,13.854,20.797
		c5.896,22.702-3.801,45.408-3.464,65.855c19.415-9.008,33.475-29.108,34.682-50.254c17.32,27.551-2.953,56.67-8.673,83.188
		c11.438,1.571,19.925-14.727,24.261-24.261c0-1.905-0.351-4.161,1.732-5.196c5.034,38.655-10.581,73.322-43.341,91.862
		c-10.741,7.818-23.899,10.236-36.388,13.875c19.75-18.544,33.271-43.854,25.989-69.338c-3.284,9.533-13.854,16.113-20.797,24.275
		c3.117-8.161,9.013-19.604,1.734-27.74c-7.275,3.29-11.438,6.754-15.604,13.856c6.756-19.226,6.756-47.838-3.463-67.59
		c-3.986-3.463-7.274-8.847-12.138-10.393c-9.879,19.578,11.626,37.084,1.731,58.918c-13.347-3.988-6.242-22.531-15.601-31.205
		c-17.683,19.254-3.989,47.154,1.731,67.616c-12.125-8.162-10.232-36.92-27.729-43.341l-1.729,29.46
		c-5.563-1.896-10.582-4.484-17.351-3.466l-3.463,3.466c21.669,17.521,26.529,49.583,53.732,57.223
		c-25.658,1.56-56.851-11.978-69.335-39.876c-12.301-23.068-10.394-51.828-27.729-72.799c12.487,3.813,23.402,11.25,32.924,22.531
		c2.615-21.146,18.557-47.853-1.731-65.873c11.802,4.163,21.157,14.045,29.483,24.275c4.322-19.763,13.854-41.607,5.195-62.405
		l-17.336-22.542l52.003,38.144c-0.175-30.507-24.437-71.778,1.72-98.818C696.82,100.546,754.189,130.353,728.545,181.831
		 M712.932,133.307c3.304,14.903-10.569,29.297,1.73,41.594c3.303,1.048,4.858-1.558,6.93-3.462
		C726.452,157.57,721.08,142.316,712.932,133.307"/>
</g>
</svg>
